<?xml version="1.0" encoding="UTF-8" standalone="no"?>
<!-- Created with Inkscape (http://www.inkscape.org/) -->

<svg
   xmlns:dc="http://purl.org/dc/elements/1.1/"
   xmlns:cc="http://creativecommons.org/ns#"
   xmlns:rdf="http://www.w3.org/1999/02/22-rdf-syntax-ns#"
   xmlns:svg="http://www.w3.org/2000/svg"
   xmlns="http://www.w3.org/2000/svg"
   xmlns:sodipodi="http://sodipodi.sourceforge.net/DTD/sodipodi-0.dtd"
   xmlns:inkscape="http://www.inkscape.org/namespaces/inkscape"
   width="200mm"
   height="200mm"
   viewBox="0 0 200 200"
   version="1.1"
   id="svg1276"
   inkscape:version="0.92.4 (5da689c313, 2019-01-14)"
   sodipodi:docname="logo-marca.svg">
  <defs
     id="defs1270" />
  <sodipodi:namedview
     id="base"
     pagecolor="#ffffff"
     bordercolor="#666666"
     borderopacity="1.0"
     inkscape:pageopacity="0.0"
     inkscape:pageshadow="2"
     inkscape:zoom="0.35"
     inkscape:cx="217.58019"
     inkscape:cy="545.98599"
     inkscape:document-units="mm"
     inkscape:current-layer="layer1"
     showgrid="false"
     inkscape:window-width="1366"
     inkscape:window-height="701"
     inkscape:window-x="0"
     inkscape:window-y="0"
     inkscape:window-maximized="1" />
  <metadata
     id="metadata1273">
    <rdf:RDF>
      <cc:Work
         rdf:about="">
        <dc:format>image/svg+xml</dc:format>
        <dc:type
           rdf:resource="http://purl.org/dc/dcmitype/StillImage" />
        <dc:title></dc:title>
      </cc:Work>
    </rdf:RDF>
  </metadata>
  <g
     inkscape:label="Camada 1"
     inkscape:groupmode="layer"
     id="layer1"
     transform="translate(0,-97)">
    <g
       id="g1894"
       transform="translate(-3.0417607,90.82703)">
      <ellipse
         ry="97.73484"
         rx="97.737907"
         cy="105.70068"
         cx="103.04192"
         id="path1202-9"
         style="opacity:1;fill:#ffffff;fill-opacity:1;stroke:none;stroke-width:0.20225926;stroke-opacity:1" />
      <ellipse
         ry="80.265327"
         rx="80.267845"
         cy="106.17296"
         cx="103.04182"
         id="path1202"
         style="opacity:1;fill:#000000;fill-opacity:1;stroke:none;stroke-width:0.16610664;stroke-opacity:1" />
      <path
         style="color:#000000;font-style:normal;font-variant:normal;font-weight:normal;font-stretch:normal;font-size:medium;line-height:normal;font-family:sans-serif;font-variant-ligatures:normal;font-variant-position:normal;font-variant-caps:normal;font-variant-numeric:normal;font-variant-alternates:normal;font-feature-settings:normal;text-indent:0;text-align:start;text-decoration:none;text-decoration-line:none;text-decoration-style:solid;text-decoration-color:#000000;letter-spacing:normal;word-spacing:normal;text-transform:none;writing-mode:lr-tb;direction:ltr;text-orientation:mixed;dominant-baseline:auto;baseline-shift:baseline;text-anchor:start;white-space:normal;shape-padding:0;clip-rule:nonzero;display:inline;overflow:visible;visibility:visible;opacity:1;isolation:auto;mix-blend-mode:normal;color-interpolation:sRGB;color-interpolation-filters:linearRGB;solid-color:#000000;solid-opacity:1;vector-effect:none;fill:#808080;fill-opacity:1;fill-rule:nonzero;stroke:none;stroke-width:1.47401488;stroke-linecap:butt;stroke-linejoin:miter;stroke-miterlimit:4;stroke-dasharray:none;stroke-dashoffset:0;stroke-opacity:1;color-rendering:auto;image-rendering:auto;shape-rendering:auto;text-rendering:auto;enable-background:accumulate"
         d="m 102.22654,61.038577 -1.37106,0.543089 3.72691,9.39464 1.37106,-0.54309 z"
         id="path371-3-5-3-0-6-5-4-4-6-7"
         inkscape:connector-curvature="0" />
      <path
         inkscape:connector-curvature="0"
         id="path112-7-4-4-5-2-6-4-0-0-5"
         d="M 134.01539,54.509767 45.745276,92.50969 v 0.03798 c -3.612776,1.376703 -5.846148,10.22693 -2.785019,19.08741 3.074234,8.88839 10.31859,14.47477 14.009986,13.28399 v 0.038 l 92.713487,-24.58611 v 0 A 24.228198,8.0762651 70.926659 0 1 134.28751,80.072248 24.228198,8.0762651 70.926659 0 1 133.99507,54.533694 Z"
         style="fill:#3881f0;fill-opacity:1;stroke:none;stroke-width:0.4348318" />
      <ellipse
         ry="7.466989"
         rx="2.4890578"
         cy="119.54008"
         cx="-108.85248"
         id="path112-2-5-0-7-1-9-7-0-4-3"
         style="fill:#3881f0;fill-opacity:1;stroke:none;stroke-width:0.17035605"
         transform="matrix(-0.94510817,0.32675762,0.32677591,0.94510185,0,0)" />
      <ellipse
         ry="1.8411509"
         rx="0.6137321"
         cy="91.829346"
         cx="-63.746414"
         id="path112-70-6-6-0-4-7-3-6-4-1-5"
         style="fill:#3881f0;fill-opacity:1;stroke:none;stroke-width:0.042005"
         transform="matrix(-0.94510817,0.32675762,0.32677591,0.94510185,0,0)" />
      <path
         style="fill:#3881f0;fill-opacity:1;stroke:none;stroke-width:0.09749983px;stroke-linecap:butt;stroke-linejoin:miter;stroke-opacity:1"
         d="m 89.57526,65.046976 -1.460302,0.85071 0.80326,2.047398 1.61792,-0.73108 z"
         id="path403-7-1-0-0-7-3-6-0-6"
         inkscape:connector-curvature="0"
         sodipodi:nodetypes="ccccc" />
      <path
         inkscape:connector-curvature="0"
         id="path112-70-9-9-9-6-9-4-1-2-4-2"
         d="m 109.31175,52.592634 -19.146482,9.592313 c -0.791866,0.514603 -0.563989,1.781172 0.03798,3.529682 0.603871,1.748894 1.560947,3.005778 2.143738,2.804872 6.579721,-2.829366 13.311744,-5.556571 19.962684,-8.303718 a 4.1019692,1.3345495 68.828133 0 1 -2.7142,-3.387074 4.1019692,1.3345495 68.828133 0 1 -0.28485,-4.22943 z m 3.14109,7.55213 a 4.1019692,1.3345495 68.828133 0 1 -0.11388,0.05696 c 0.038,0 0.0759,-0.03798 0.11388,-0.03798 z"
         style="fill:#3881f0;fill-opacity:1;stroke:none;stroke-width:0.07643645" />
      <path
         inkscape:connector-curvature="0"
         id="path112-76-8-2-7-6-5-7-6-8-9"
         d="m 135.05925,54.200627 a 24.228197,8.0762651 70.926654 0 0 -0.5602,0.132924 24.228197,8.0762651 70.926654 0 0 -0.76907,0.421559 24.228197,8.0762651 70.926654 0 1 15.33811,20.308208 24.228197,8.0762651 70.926654 0 1 1.05392,25.114912 24.228197,8.0762651 70.926654 0 0 0.21078,-0.057 24.228197,8.0762651 70.926654 0 0 -0.28484,-25.53703 24.228197,8.0762651 70.926654 0 0 -14.99023,-20.388346 z"
         style="fill:#3881f0;fill-opacity:1;stroke:none;stroke-width:0.55275559;stroke-opacity:1" />
      <path
         sodipodi:nodetypes="ccczccscc"
         inkscape:connector-curvature="0"
         id="path112-76-8-5-1-4-0-2-5-7-7-1"
         d="m 109.50297,52.524271 c -0.038,0.0042 -0.057,0.01138 -0.0951,0.01898 -0.057,0.01258 -0.17092,0.05696 -0.23546,0.151909 0.7026,-0.189888 1.79261,1.295056 2.56455,3.309984 0.77288,2.015305 1.10899,3.782237 0.55069,4.215947 0.012,-0.0021 0.0569,-0.01258 0.0569,-0.01898 0.69504,-0.244961 0.60008,-2.159055 -0.21078,-4.274433 -0.77099,-2.010371 -1.92136,-3.4993 -2.63557,-3.410432 z"
         style="fill:#3881f0;fill-opacity:1;stroke:none;stroke-width:0.09245988;stroke-opacity:1" />
      <path
         sodipodi:nodetypes="ccccc"
         inkscape:connector-curvature="0"
         id="rect147-5-45-2-8-6-5-9-5-0-2"
         d="m 95.494331,121.73459 -2.908453,0.81462 18.218852,66.01084 4.8809,-1.56278 z"
         style="fill:#808080;fill-opacity:1;stroke:none;stroke-width:0.6536985" />
      <path
         sodipodi:nodetypes="ccccc"
         inkscape:connector-curvature="0"
         id="rect147-5-3-2-0-5-2-4-6-6-8-7"
         d="m 94.608276,122.47326 -1.633108,0.076 -1.401439,64.41747 3.749885,-0.002 z"
         style="fill:#808080;fill-opacity:1;stroke:none;stroke-width:0.50642627" />
      <path
         style="fill:#808080;fill-opacity:1;stroke:none;stroke-width:0.09749983px;stroke-linecap:butt;stroke-linejoin:miter;stroke-opacity:1"
         d="m 83.862798,97.474183 -1.646403,0.698798 9.205611,21.598709 c -3.658925,0.50701 -5.107266,1.01021 -5.230508,1.44695 h -0.05697 v 1.09378 h 0.01898 a 1.4057096,8.2702136 88.55848 0 0 8.289547,1.14124 1.4057096,8.2702136 88.55848 0 0 8.218715,-1.56279 h 0.019 v -1.09377 h -0.038 c -0.038,-0.71399 -2.77305,-1.34253 -8.970892,-1.18872 z"
         id="path231-4-3-2-1-7-2-9-6-0"
         inkscape:connector-curvature="0" />
      <path
         sodipodi:nodetypes="ccccc"
         inkscape:connector-curvature="0"
         id="rect147-5-5-7-1-6-8-4-1-8-2-9"
         d="m 92.585878,120.92034 2.908453,0.81462 -18.43666,60.84583 -4.880904,-1.56281 z"
         style="fill:#808080;fill-opacity:1;stroke:none;stroke-width:0.6536985" />
      <path
         style="color:#000000;font-style:normal;font-variant:normal;font-weight:normal;font-stretch:normal;font-size:medium;line-height:normal;font-family:sans-serif;font-variant-ligatures:normal;font-variant-position:normal;font-variant-caps:normal;font-variant-numeric:normal;font-variant-alternates:normal;font-feature-settings:normal;text-indent:0;text-align:start;text-decoration:none;text-decoration-line:none;text-decoration-style:solid;text-decoration-color:#000000;letter-spacing:normal;word-spacing:normal;text-transform:none;writing-mode:lr-tb;direction:ltr;text-orientation:mixed;dominant-baseline:auto;baseline-shift:baseline;text-anchor:start;white-space:normal;shape-padding:0;clip-rule:nonzero;display:inline;overflow:visible;visibility:visible;opacity:1;isolation:auto;mix-blend-mode:normal;color-interpolation:sRGB;color-interpolation-filters:linearRGB;solid-color:#000000;solid-opacity:1;vector-effect:none;fill:#808080;fill-opacity:1;fill-rule:nonzero;stroke:none;stroke-width:1.47401488;stroke-linecap:butt;stroke-linejoin:miter;stroke-miterlimit:4;stroke-dasharray:none;stroke-dashoffset:0;stroke-opacity:1;color-rendering:auto;image-rendering:auto;shape-rendering:auto;text-rendering:auto;enable-background:accumulate"
         d="m 100.27611,62.152666 -1.369151,0.543085 3.726911,9.393882 1.37105,-0.543088 z"
         id="path371-4-1-0-7-4-7-7-4-3"
         inkscape:connector-curvature="0" />
      <path
         inkscape:connector-curvature="0"
         id="path1206-6-9-3-8-2-7-6"
         d="M 103.04176,6.17297 A 100.00091,99.997772 0 0 0 3.0417615,106.1761 a 100.00091,99.997772 0 0 0 99.9999985,99.99687 100.00091,99.997772 0 0 0 100,-99.99687 100.00091,99.997772 0 0 0 -100,-100.00313 z m 1.34637,3.575067 c 1.00455,0 1.88947,0.170901 2.6557,0.486119 0.77287,0.307623 1.41283,0.738674 1.93011,1.295053 0.52222,0.556379 0.91529,1.226693 1.17925,2.007901 0.26206,0.774754 0.38929,1.640654 0.376,2.597322 0,0.962743 -0.17092,1.832443 -0.46715,2.6165 -0.29813,0.782349 -0.71781,1.454561 -1.26281,2.0079 -0.54499,0.552581 -1.21534,0.97224 -1.99504,1.262772 -0.77479,0.292431 -1.64831,0.43485 -2.62324,0.421557 -1.03303,0 -1.93562,-0.193688 -2.70735,-0.518402 -0.76528,-0.332306 -1.39953,-0.780449 -1.910937,-1.353918 -0.510811,-0.579166 -0.894403,-1.268468 -1.146962,-2.053475 -0.244969,-0.786145 -0.357011,-1.642552 -0.343721,-2.571305 0,-0.962745 0.151921,-1.830545 0.440559,-2.603588 0.284852,-0.772854 0.691228,-1.420381 1.224834,-1.956062 0.539297,-0.541188 1.200147,-0.949452 1.975497,-1.23049 0.78047,-0.2867341 1.67108,-0.421556 2.67488,-0.4082627 z m 10.15604,0.725382 2.90181,0.5184 3.69823,10.38264 c 0,-0.24496 0.038,-0.503211 0.0569,-0.770957 0.038,-0.229768 0.038,-0.486119 0.076,-0.770955 0.038,-0.284835 0.0948,-0.567772 0.13288,-0.854506 l 1.25141,-7.066393 2.26034,0.40067 -2.15039,12.150898 -2.98593,-0.531694 -3.63348,-10.29168 c 0,0.25825 -0.038,0.514602 -0.0569,0.770955 0,0.222172 -0.038,0.463332 -0.076,0.719684 -0.038,0.256352 -0.0569,0.495614 -0.0948,0.725382 l -1.26865,7.163425 -2.26089,-0.400669 z m -22.630904,0.303824 c 0.596276,0.09495 1.107096,0.256353 1.534364,0.518401 0.427266,0.256352 0.765281,0.594357 1.015944,1.015913 0.256362,0.415861 0.429165,0.909576 0.510823,1.469752 0.05697,0.455737 0.05697,0.881093 -0.03798,1.281761 -0.07596,0.394973 -0.216482,0.757663 -0.415873,1.088073 -0.193698,0.328509 -0.438662,0.624738 -0.738697,0.875393 -0.301936,0.24496 -0.636156,0.440546 -1.01025,0.588662 l 4.054481,4.637694 -2.875794,0.427252 -3.517072,-4.216517 -2.992578,0.440546 0.679829,4.637315 -2.551641,0.375982 -1.800218,-12.202548 6.094912,-0.90008 c 0.761485,-0.113936 1.441313,-0.132926 2.033792,-0.03798 z m 12.442394,0.996925 c -0.60198,0 -1.12799,0.09495 -1.58754,0.284836 -0.45194,0.191789 -0.83174,0.472826 -1.13938,0.843113 -0.30763,0.368388 -0.5469,0.810831 -0.70641,1.33303 -0.15192,0.518401 -0.24117,1.101365 -0.25256,1.748892 0,0.641829 0.0569,1.236187 0.20129,1.773575 0.15191,0.533594 0.37599,0.996926 0.67413,1.386201 0.29814,0.389275 0.66843,0.6912 1.11468,0.913373 0.44626,0.222171 0.96468,0.341804 1.55526,0.349399 0.63046,0 1.17356,-0.09495 1.6331,-0.298129 0.45767,-0.214578 0.83555,-0.512704 1.13368,-0.894383 0.30194,-0.385478 0.53172,-0.845013 0.67984,-1.372909 0.15192,-0.535489 0.22596,-1.118454 0.23168,-1.74889 0,-0.647527 -0.057,-1.232389 -0.20509,-1.754587 -0.15192,-0.527896 -0.36839,-0.981733 -0.66654,-1.359615 -0.29814,-0.377882 -0.66843,-0.670315 -1.1147,-0.875396 -0.44055,-0.208879 -0.95897,-0.322814 -1.54764,-0.332308 z m -23.686541,0.628537 0.569692,1.910487 -3.821286,1.146938 2.95327,9.909243 -2.474161,0.738673 -2.953457,-9.909812 -3.821477,1.141242 -0.569686,-1.917513 z m 10.207692,0.400669 c -0.288641,-0.03798 -0.609567,-0.03798 -0.972268,0.03798 l -3.277612,0.48612 0.531712,3.601462 3.348822,-0.491817 c 0.38169,-0.05697 0.698815,-0.151913 0.958975,-0.279139 0.262055,-0.132925 0.472841,-0.29243 0.620961,-0.478524 0.151914,-0.191788 0.258261,-0.410163 0.311429,-0.647526 0.05698,-0.237361 0.05698,-0.491816 0.03798,-0.765258 -0.09494,-0.594357 -0.34751,-1.00642 -0.78427,-1.236187 -0.21458,-0.113936 -0.469038,-0.18989 -0.757681,-0.218374 z m 41.162139,1.859028 c 0.83174,-0.03798 1.72047,0.132925 2.66861,0.459533 0.94757,0.33231 1.73565,0.761462 2.36401,1.295053 0.63425,0.537391 1.11088,1.154534 1.42422,1.845735 0.32283,0.693102 0.48233,1.450764 0.48613,2.273179 0,0.816528 -0.1519,1.68053 -0.46714,2.584409 -0.31902,0.907676 -0.74628,1.688126 -1.27611,2.338119 -0.5298,0.649427 -1.14126,1.150737 -1.83249,1.502034 -0.69121,0.353197 -1.45269,0.53929 -2.28616,0.569672 -0.82793,0.03798 -1.70337,-0.113937 -2.62322,-0.43295 -0.97608,-0.341804 -1.77365,-0.788046 -2.40334,-1.340627 -0.62095,-0.558279 -1.0824,-1.192512 -1.38624,-1.897005 -0.30194,-0.712089 -0.45196,-1.481145 -0.44056,-2.306029 0,-0.824126 0.17091,-1.669138 0.48613,-2.545291 0.31903,-0.909576 0.72731,-1.688126 1.23623,-2.332046 0.51462,-0.641829 1.1128,-1.131746 1.78882,-1.469751 0.68362,-0.341802 1.43753,-0.522199 2.26034,-0.543087 z m 0.40067,2.143861 c -0.48994,0.03798 -0.94378,0.189891 -1.35395,0.432949 -0.41018,0.252555 -0.77288,0.601954 -1.08812,1.048197 -0.31522,0.440545 -0.57728,0.962745 -0.79188,1.574192 -0.21076,0.60575 -0.33421,1.192512 -0.36839,1.74889 -0.038,0.554481 0.038,1.05769 0.20129,1.522921 0.15193,0.463334 0.41019,0.871598 0.76529,1.222895 0.3513,0.353195 0.80897,0.628538 1.36726,0.824125 0.59436,0.208879 1.14508,0.288633 1.64451,0.231667 0.5032,-0.05697 0.95707,-0.225971 1.35965,-0.491817 0.41017,-0.271544 0.76909,-0.632335 1.07481,-1.088072 0.30763,-0.459536 0.5697,-0.991228 0.77668,-1.587484 0.21268,-0.611447 0.32851,-1.186815 0.3494,-1.729902 0.038,-0.546885 -0.038,-1.042498 -0.1956,-1.496336 -0.1709,-0.45194 -0.42536,-0.850709 -0.78237,-1.184916 -0.35131,-0.339906 -0.80896,-0.601953 -1.36725,-0.797541 -0.56778,-0.199384 -1.09571,-0.27534 -1.59323,-0.231667 z m -65.69085,0.782349 c 0.463343,0.07596 0.87352,0.241161 1.238123,0.505109 0.366499,0.256352 0.706416,0.600053 1.017845,1.031104 l -2.137284,1.346325 c -0.338018,-0.431053 -0.746292,-0.683606 -1.219138,-0.765259 -0.467143,-0.09494 -1.033034,0.03798 -1.703369,0.336105 -0.413971,0.189891 -0.742493,0.381679 -0.98556,0.582965 -0.237374,0.191788 -0.413976,0.385477 -0.524115,0.582963 -0.09495,0.195588 -0.151917,0.387375 -0.151917,0.582963 0.0033,0.19179 0.05698,0.375984 0.132931,0.55638 0.13293,0.275341 0.298136,0.474726 0.510821,0.594357 0.210784,0.113936 0.463348,0.189889 0.757686,0.195587 0.29244,0 0.615263,-0.03798 0.99126,-0.09494 0.370296,-0.07596 0.774778,-0.170902 1.211538,-0.258253 0.38549,-0.09494 0.769083,-0.151913 1.152669,-0.231665 0.381695,-0.07596 0.757689,-0.132926 1.120391,-0.170902 0.364603,-0.03798 0.71971,-0.03798 1.061522,0 0.343712,0.03798 0.662736,0.132925 0.964672,0.271543 0.303835,0.132926 0.590578,0.334207 0.848839,0.601953 0.262057,0.265845 0.482333,0.620943 0.687421,1.055791 0.231677,0.510805 0.351312,1.017813 0.355111,1.522921 0.0027,0.499412 -0.13293,0.987431 -0.381694,1.464055 -0.252563,0.472828 -0.64375,0.930463 -1.177357,1.372908 -0.533608,0.434849 -1.221033,0.843113 -2.059805,1.224793 -0.742497,0.338005 -1.431821,0.573469 -2.059807,0.698796 -0.628557,0.132926 -1.207741,0.151912 -1.735652,0.07596 -0.522219,-0.07596 -0.995059,-0.252554 -1.424226,-0.518401 -0.425366,-0.27534 -0.814655,-0.632335 -1.152666,-1.082375 l 2.105187,-1.405189 c 0.170909,0.22217 0.372196,0.406365 0.588682,0.558277 0.214583,0.151913 0.46904,0.252555 0.751988,0.31142 0.284843,0.05697 0.607668,0.05697 0.964672,0 0.358904,-0.05696 0.767183,-0.205082 1.222932,-0.41396 0.797568,-0.362691 1.348265,-0.761462 1.657796,-1.192514 0.315231,-0.436747 0.357008,-0.909573 0.132931,-1.424176 -0.132931,-0.307623 -0.343711,-0.522198 -0.601969,-0.64183 -0.258259,-0.132925 -0.560198,-0.189889 -0.900108,-0.189889 -0.339916,0 -0.708314,0.03798 -1.114694,0.132925 -0.404479,0.09494 -0.827948,0.170902 -1.26281,0.279138 -0.353208,0.07596 -0.706416,0.132926 -1.061522,0.201284 -0.355105,0.05696 -0.698817,0.113936 -1.042532,0.132926 -0.338012,0.03798 -0.664637,0 -0.983661,-0.03798 -0.322823,-0.03798 -0.624759,-0.132925 -0.913401,-0.265848 -0.284845,-0.151911 -0.552599,-0.3475 -0.797568,-0.601951 -0.239267,-0.256353 -0.448154,-0.588661 -0.634252,-0.996925 -0.25256,-0.558278 -0.358902,-1.086174 -0.319025,-1.587484 0.03798,-0.499413 0.19939,-0.964644 0.480436,-1.391897 0.282946,-0.436747 0.672236,-0.839315 1.165965,-1.203905 0.493728,-0.36649 1.069115,-0.694999 1.71666,-0.991229 0.733003,-0.334206 1.38245,-0.560176 1.956125,-0.679808 0.577285,-0.132924 1.097604,-0.151912 1.55525,-0.09494 z m 77.53089,1.445067 3.01859,1.684328 -1.43751,7.098673 c -0.038,0.18989 -0.0948,0.413961 -0.17092,0.672211 -0.0569,0.262051 -0.13287,0.518402 -0.1956,0.76526 -0.0759,0.284835 -0.1519,0.577268 -0.23736,0.886788 0.21838,-0.225968 0.43107,-0.440546 0.63427,-0.647527 0.0948,-0.09494 0.18989,-0.18989 0.27915,-0.279138 0.0948,-0.09494 0.18989,-0.18989 0.27153,-0.27914 0.0948,-0.09494 0.1899,-0.170901 0.26586,-0.252553 0.0949,-0.07596 0.15192,-0.151913 0.22598,-0.210779 l 5.28519,-5.000193 3.00549,1.676731 -6.0237,10.771344 -2.00132,-1.120355 3.64657,-6.52881 c 0.15194,-0.258252 0.30195,-0.524098 0.45955,-0.79754 0.17092,-0.267745 0.31524,-0.514603 0.45387,-0.738674 0.17091,-0.262049 0.32852,-0.520299 0.47853,-0.770954 -0.33232,0.343701 -0.65325,0.670313 -0.95328,0.977934 -0.13289,0.132926 -0.25256,0.265847 -0.38928,0.400669 -0.1329,0.132926 -0.27536,0.267745 -0.40827,0.394973 -0.1329,0.132925 -0.24119,0.252555 -0.35512,0.362691 -0.11388,0.132924 -0.21838,0.20508 -0.30383,0.286734 l -5.2981,4.922528 -1.59894,-0.900079 1.41093,-7.092218 c 0.038,-0.113937 0.0569,-0.244959 0.0951,-0.400668 0.038,-0.151913 0.076,-0.322815 0.11387,-0.499413 0.0569,-0.170902 0.0949,-0.355095 0.13289,-0.544986 0.0569,-0.189889 0.0948,-0.372186 0.1329,-0.550682 0.0948,-0.417757 0.20509,-0.862102 0.31902,-1.327334 -0.15192,0.303824 -0.29624,0.605751 -0.44055,0.900081 -0.13289,0.248757 -0.26205,0.507006 -0.40068,0.78235 -0.15192,0.27534 -0.26586,0.514602 -0.37599,0.712088 l -3.6464,6.529002 -2.00815,-1.120353 z m -92.246721,5.537774 10.48,7.908366 -2.143929,1.391897 -2.636523,-2.04664 -3.944336,2.558206 0.803261,3.23839 -2.169756,1.405189 -2.940737,-12.791968 z m 51.007301,1.464055 a 80.140887,80.138375 0 0 1 80.14102,80.138702 80.140887,80.138375 0 0 1 -80.14102,80.13223 80.140887,80.138375 0 0 1 -80.141584,-80.13223 80.140887,80.138375 0 0 1 80.141584,-80.138702 z m -51.247141,0.964644 c 0,0.03798 0.03798,0.07596 0.05698,0.189889 0.03798,0.113938 0.07596,0.252555 0.132929,0.421558 0.05697,0.170901 0.113941,0.356994 0.170909,0.56967 0.05697,0.205083 0.113939,0.412064 0.170905,0.620942 l 0.913398,3.63982 2.973021,-1.930046 -2.953462,-2.312296 C 53.08687,28.066764 52.915963,27.931943 52.746956,27.79902 52.576051,27.647108 52.42793,27.531275 52.293103,27.41734 52.160174,27.284415 52.048138,27.198967 51.95509,27.124909 51.86014,27.048954 51.822159,27.010973 51.803171,26.991984 Z m 106.554851,0.499412 2.08563,1.522921 -7.26089,9.974373 -2.08582,-1.522919 z m 7.88258,6.21777 2.26053,2.04683 -4.96807,12.15071 -1.89705,-1.716612 1.30837,-3.070148 -3.48478,-3.160536 -2.92745,1.598877 -1.91093,-1.729901 z m -127.527558,0.789945 1.412828,1.412785 -5.032635,5.032096 2.189126,2.189438 4.65721,-4.656874 1.412827,1.412785 -4.65721,4.656871 2.299459,2.299193 5.285193,-5.291673 1.412829,1.412784 -7.111617,7.118231 -8.72479,-8.724516 z m 127.378678,1.644452 c 0,0 -0.076,0.03798 -0.1709,0.09494 -0.0948,0.05697 -0.21649,0.151911 -0.3703,0.231666 -0.15192,0.09494 -0.31902,0.189891 -0.51082,0.298128 -0.18991,0.113937 -0.37409,0.218374 -0.56209,0.324713 l -3.28387,1.807757 2.62949,2.383313 1.4774,-3.445561 c 0.0948,-0.199384 0.17091,-0.396871 0.25825,-0.596255 0.0948,-0.199385 0.17091,-0.377883 0.25256,-0.537391 0.0948,-0.170901 0.15192,-0.296228 0.19559,-0.400668 0.0569,-0.09494 0.0761,-0.151913 0.0948,-0.170902 z M 30.528692,46.436764 c 0.387388,0 0.782372,0.05697 1.184952,0.151915 0.805161,0.195585 1.629311,0.605748 2.474351,1.230489 0.827948,0.611446 1.458403,1.276063 1.90447,1.98834 0.440559,0.710195 0.719708,1.431776 0.82225,2.176527 0.09495,0.744371 0.03798,1.496336 -0.189895,2.247352 -0.218381,0.74627 -0.573486,1.456459 -1.074814,2.137218 l -2.966371,4.015992 -9.923033,-7.325591 2.649054,-3.594628 c 0.569687,-0.769058 1.184952,-1.403291 1.853387,-1.904219 0.668435,-0.501313 1.37485,-0.839315 2.118104,-1.010218 0.370298,-0.09494 0.753888,-0.132927 1.139379,-0.113937 z m -0.319027,2.487185 c -0.248765,0 -0.495629,0 -0.731101,0.03798 -0.474741,0.09494 -0.922897,0.275343 -1.340668,0.577267 -0.415873,0.29623 -0.795666,0.685508 -1.146976,1.16023 l -1.088103,1.469754 6.716823,4.95481 1.302689,-1.76218 c 0.307633,-0.417762 0.520317,-0.85451 0.636154,-1.314045 0.11394,-0.465231 0.132929,-0.928562 0.03798,-1.39949 -0.09495,-0.476629 -0.30763,-0.951353 -0.628554,-1.41279 C 33.65268,50.770256 33.210222,50.329709 32.64623,49.913853 32.068945,49.488496 31.520144,49.203659 30.988433,49.059344 30.726376,48.983379 30.466218,48.92642 30.217455,48.92642 Z M 19.017173,63.017807 c 0.434864,-0.03798 0.894413,0.05697 1.372951,0.27914 0.639951,0.284835 1.105197,0.70829 1.386245,1.262771 0.284845,0.546882 0.332317,1.220996 0.170906,2.014167 0.51462,-0.862102 1.112792,-1.426077 1.794521,-1.690024 0.677929,-0.271544 1.395736,-0.235463 2.163297,0.113937 0.56969,0.262047 1.014048,0.590558 1.321679,1.004522 0.301936,0.410161 0.482337,0.869698 0.56969,1.386198 0.07596,0.508906 0.05698,1.057689 -0.05697,1.638756 -0.13293,0.579166 -0.311429,1.164027 -0.577284,1.754585 l -2.526,5.634811 -11.257437,-5.051846 2.312559,-5.149448 c 0.298138,-0.666516 0.622859,-1.23429 0.972269,-1.697621 0.345612,-0.470928 0.719707,-0.83552 1.114692,-1.088071 0.394984,-0.252557 0.80516,-0.387378 1.243822,-0.408267 z m -0.07596,2.629794 c -0.214583,7.08e-4 -0.415873,0.05696 -0.594376,0.1709 -0.357006,0.225972 -0.67413,0.655122 -0.958977,1.289357 l -1.203943,2.681441 2.785021,1.257073 1.211538,-2.701001 c 0.298138,-0.664615 0.400683,-1.198208 0.303836,-1.598874 -0.09494,-0.408266 -0.377894,-0.717788 -0.84314,-0.926666 -0.252563,-0.113937 -0.484237,-0.170903 -0.69882,-0.170903 z m 4.877298,1.464052 c -0.256359,0.03798 -0.489932,0.132926 -0.706415,0.271544 -0.210784,0.151915 -0.404478,0.349398 -0.58298,0.601954 -0.170907,0.248758 -0.336117,0.529792 -0.480438,0.848811 l -1.340669,2.985454 3.225769,1.450765 1.380547,-3.076224 c 0.132928,-0.307626 0.244965,-0.605753 0.319026,-0.894385 0.05698,-0.288634 0.09494,-0.562076 0.05698,-0.808933 -0.03798,-0.256352 -0.151916,-0.48612 -0.303834,-0.6931 -0.170908,-0.20888 -0.406379,-0.381678 -0.725405,-0.525997 -0.298136,-0.132926 -0.573486,-0.189889 -0.827946,-0.170899 z m -11.878963,8.23194 7.31272,1.995181 c 0.816555,0.22217 1.483091,0.550681 2.008154,0.977935 0.524114,0.427254 0.9191,0.934261 1.184955,1.515325 0.258259,0.579165 0.394985,1.217199 0.408276,1.9234 0,0.698799 -0.09494,1.43747 -0.303834,2.215072 -0.201291,0.742471 -0.472842,1.397595 -0.816554,1.969166 -0.34941,0.569668 -0.774778,1.031104 -1.270408,1.380502 -0.499426,0.341802 -1.074813,0.560176 -1.729955,0.65512 -0.653244,0.09494 -1.384345,0.03798 -2.195581,-0.201283 L 9.0952811,85.740096 9.7751096,83.2531 17.022694,85.228529 c 0.501329,0.132926 0.95328,0.191791 1.353963,0.170903 0.394984,-0.03798 0.736798,-0.132924 1.036833,-0.286733 0.296239,-0.170904 0.543103,-0.396871 0.744395,-0.693103 0.195592,-0.298127 0.351306,-0.649425 0.459548,-1.050092 0.11394,-0.406367 0.151918,-0.791845 0.132931,-1.158333 -0.03798,-0.375982 -0.132931,-0.721584 -0.303834,-1.031105 -0.170909,-0.315217 -0.429166,-0.584863 -0.765285,-0.822225 -0.334217,-0.235465 -0.757686,-0.423456 -1.268507,-0.563975 l -7.163653,-1.95606 z m 6.788038,15.032868 1.981947,0.244956 -1.126083,9.1324 L 7.3417791,98.238491 7.660806,95.673642 17.920528,96.94401 Z M 16.02023,101.52986 c 0.448155,0.17091 0.890615,0.39688 1.321679,0.67982 0.432963,0.28292 0.810859,0.63803 1.146973,1.06907 0.336118,0.43105 0.613367,0.95136 0.829848,1.55331 0.208886,0.59815 0.328521,1.30075 0.343712,2.11823 0.03798,1.06717 -0.113939,1.99651 -0.415873,2.78474 -0.303835,0.78805 -0.738697,1.44507 -1.295092,1.96917 -0.562094,0.5184 -1.23053,0.91907 -2.007965,1.18491 -0.776676,0.26205 -1.623612,0.39687 -2.551827,0.41395 -0.962774,0.038 -1.836296,-0.0949 -2.616961,-0.31141 -0.7804748,-0.23547 -1.4489086,-0.59815 -2.0013172,-1.08809 -0.5582969,-0.4899 -0.995058,-1.11843 -1.3007921,-1.878 -0.3190239,-0.76526 -0.4766386,-1.66154 -0.4994257,-2.70081 -0.037985,-0.80514 0.056968,-1.51342 0.2050872,-2.11784 0.1519169,-0.61146 0.3854891,-1.13745 0.6874236,-1.5799 0.2962388,-0.45004 0.6475482,-0.82032 1.0615221,-1.11466 0.4082762,-0.30192 0.8602314,-0.53928 1.3596581,-0.71208 l 0.666537,2.26026 c -0.262058,0.095 -0.508923,0.22217 -0.744396,0.39498 -0.2411664,0.17089 -0.4538511,0.39497 -0.634253,0.66081 -0.189896,0.25826 -0.3247216,0.56777 -0.4272657,0.92097 -0.1139408,0.3532 -0.1519179,0.74817 -0.1519179,1.19252 0,0.62474 0.1329302,1.16022 0.3380145,1.60647 0.210787,0.44434 0.501328,0.80893 0.8811201,1.09377 0.379792,0.27914 0.831746,0.48041 1.359657,0.60955 0.522217,0.13292 1.108996,0.18989 1.754644,0.1709 0.641849,0 1.234326,-0.095 1.767935,-0.23737 0.527912,-0.1519 0.981763,-0.37408 1.359658,-0.67411 0.377894,-0.29812 0.674132,-0.6798 0.88112,-1.13935 0.205089,-0.46523 0.301934,-1.0159 0.284845,-1.65773 0,-0.48422 -0.09495,-0.90199 -0.225977,-1.24949 -0.151916,-0.35319 -0.332319,-0.65512 -0.556397,-0.90577 -0.227875,-0.25825 -0.488033,-0.47093 -0.77098,-0.63424 -0.282945,-0.17089 -0.565891,-0.30192 -0.854533,-0.40825 z m 171.83741,20.16922 -0.18989,2.02726 c -0.44057,0 -0.79756,0.13292 -1.08241,0.40066 -0.28105,0.25826 -0.48805,0.67223 -0.62097,1.24949 -0.0949,0.357 -0.13287,0.66652 -0.11387,0.91906 0,0.24878 0.038,0.45575 0.11387,0.62096 0.0761,0.17089 0.17092,0.28103 0.30384,0.37597 0.13289,0.0948 0.25826,0.15192 0.41398,0.19561 0.23737,0.0569 0.45196,0.038 0.63425,-0.038 0.17091,-0.0759 0.33991,-0.20508 0.49183,-0.38927 0.15192,-0.1899 0.29624,-0.40637 0.43297,-0.67412 0.1329,-0.27156 0.27535,-0.57348 0.42725,-0.90008 0.1329,-0.28863 0.27156,-0.57347 0.41398,-0.85451 0.1329,-0.28104 0.28865,-0.54878 0.44816,-0.79754 0.15192,-0.24876 0.33231,-0.47092 0.52411,-0.67221 0.1918,-0.20128 0.40639,-0.36269 0.64755,-0.48611 0.23926,-0.13293 0.50703,-0.21269 0.80326,-0.24497 0.29814,-0.038 0.63426,0 1.01026,0.0759 0.44055,0.0949 0.82035,0.27534 1.14697,0.51841 0.32283,0.24876 0.56588,0.56016 0.74439,0.95894 0.17092,0.39308 0.28674,0.87159 0.30385,1.43177 0.038,0.55449 -0.0569,1.19251 -0.22599,1.91713 -0.15192,0.64184 -0.33612,1.19441 -0.56209,1.65775 -0.22978,0.46333 -0.49753,0.845 -0.80327,1.14693 -0.30383,0.29434 -0.64374,0.51651 -1.02353,0.66082 -0.3836,0.13289 -0.80327,0.20509 -1.25711,0.2013 l 0.13288,-2.03334 c 0.22979,0 0.44436,-0.038 0.64755,-0.0948 0.20131,-0.0569 0.38929,-0.17091 0.56209,-0.32474 0.17092,-0.15191 0.32853,-0.36266 0.46716,-0.62092 0.13288,-0.26586 0.23736,-0.59626 0.33232,-0.99124 0.15191,-0.68739 0.1709,-1.23617 0.0569,-1.64444 -0.13289,-0.41585 -0.41778,-0.67412 -0.86213,-0.77666 -0.26585,-0.057 -0.49562,-0.038 -0.69882,0.076 -0.20129,0.11388 -0.39119,0.26775 -0.5564,0.48612 -0.17092,0.21837 -0.32282,0.47661 -0.46713,0.77665 -0.15193,0.29813 -0.29246,0.61145 -0.44057,0.93805 -0.13289,0.26205 -0.25636,0.52411 -0.38929,0.78235 -0.13288,0.25825 -0.27724,0.50322 -0.43296,0.73108 -0.15191,0.22597 -0.31524,0.43105 -0.49942,0.61525 -0.18991,0.18988 -0.39309,0.33229 -0.62096,0.44813 -0.23169,0.11388 -0.48804,0.18991 -0.77099,0.21079 -0.28293,0.038 -0.60007,0 -0.95328,-0.076 -0.48043,-0.11388 -0.87352,-0.30383 -1.17356,-0.57727 -0.29814,-0.27153 -0.5165,-0.60196 -0.65325,-0.99123 -0.15191,-0.39496 -0.20129,-0.83931 -0.19558,-1.33493 0,-0.49561 0.076,-1.02159 0.20127,-1.57989 0.15194,-0.63233 0.32286,-1.16022 0.52413,-1.58747 0.20128,-0.43106 0.44055,-0.77286 0.714,-1.03111 0.27156,-0.26205 0.5792,-0.44814 0.9267,-0.55069 0.34371,-0.11393 0.73111,-0.1519 1.15838,-0.1519 z m 5.31767,10.67374 -0.65324,1.94959 -2.6878,0.038 -1.20393,3.58819 2.13102,1.64444 -0.66086,1.96878 -8.27131,-6.59337 0.77667,-2.32521 z m -9.50829,1.91712 c 0,0 0.0569,0.038 0.13288,0.0948 0.076,0.0569 0.17091,0.13287 0.28484,0.20508 0.11388,0.076 0.25257,0.1709 0.39499,0.27724 0.13288,0.0948 0.27534,0.20509 0.41398,0.31141 l 2.39667,1.83245 0.90581,-2.70745 -3.0186,0.038 c -0.1709,0.002 -0.3513,0 -0.5241,0 -0.17091,0 -0.33612,0 -0.47854,0 -0.15191,0 -0.26205,0 -0.35511,0 -0.0948,0 -0.15192,0 -0.15192,0 z m -2.13103,5.16864 c 0.35892,-0.038 0.74249,0 1.15838,0.0948 l -0.57729,1.95624 c -0.43297,-0.0948 -0.81085,-0.038 -1.13938,0.17091 -0.32852,0.19939 -0.61717,0.56777 -0.86023,1.10895 -0.15192,0.33421 -0.24498,0.63045 -0.28484,0.88112 -0.038,0.24115 -0.0569,0.45193 0,0.62852 0.038,0.1709 0.11388,0.31902 0.21837,0.43294 0.095,0.11388 0.22977,0.20508 0.37599,0.27155 0.22219,0.0949 0.43299,0.13288 0.62857,0.0949 0.18989,-0.038 0.37789,-0.13289 0.56398,-0.28484 0.18991,-0.15192 0.36271,-0.3418 0.5507,-0.57726 0.1899,-0.24117 0.3893,-0.50701 0.60199,-0.79754 0.18988,-0.25635 0.37598,-0.5108 0.56969,-0.75766 0.18989,-0.24876 0.39117,-0.48043 0.59627,-0.6931 0.20509,-0.21078 0.41967,-0.39688 0.64754,-0.55639 0.22977,-0.15191 0.46145,-0.27534 0.72541,-0.34939 0.25826,-0.0758 0.53741,-0.1139 0.83554,-0.0948 0.29814,0.038 0.62667,0.11389 0.97796,0.27155 0.4102,0.1899 0.75199,0.42916 1.02355,0.73107 0.26584,0.30193 0.44816,0.66273 0.5431,1.08809 0.0948,0.42155 0.0948,0.91148 0,1.46405 -0.0948,0.54688 -0.29244,1.15643 -0.59628,1.83244 -0.27155,0.60004 -0.56017,1.10516 -0.87541,1.51532 -0.31523,0.41016 -0.65136,0.73677 -1.01026,0.97225 -0.357,0.23165 -0.7387,0.37977 -1.13936,0.44813 -0.40449,0.0569 -0.82606,0.038 -1.26852,-0.057 l 0.52411,-1.96916 c 0.22599,0.038 0.44247,0.057 0.65516,0.038 0.21266,-0.038 0.41966,-0.0948 0.62094,-0.20509 0.19941,-0.13288 0.3931,-0.29244 0.57729,-0.5184 0.18989,-0.23167 0.35132,-0.53738 0.51841,-0.90767 0.29245,-0.64375 0.41587,-1.17354 0.37601,-1.59888 -0.038,-0.43295 -0.27156,-0.74628 -0.68743,-0.93238 -0.24877,-0.11388 -0.47853,-0.13287 -0.69883,-0.0569 -0.21837,0.0569 -0.43675,0.18989 -0.63994,0.37028 -0.20509,0.1709 -0.40828,0.40257 -0.60957,0.66651 -0.20128,0.26585 -0.41207,0.5431 -0.62096,0.83552 -0.1709,0.22977 -0.35131,0.45953 -0.53172,0.6874 -0.17091,0.22787 -0.36649,0.44055 -0.56399,0.63425 -0.19559,0.19179 -0.40067,0.3589 -0.61525,0.50511 -0.2165,0.15192 -0.45196,0.25634 -0.69883,0.32471 -0.24876,0.0569 -0.51461,0.0759 -0.79756,0.0569 -0.28293,-0.038 -0.58868,-0.11387 -0.92099,-0.26585 -0.45007,-0.20129 -0.78997,-0.46522 -1.02923,-0.79184 -0.23739,-0.3247 -0.38931,-0.6893 -0.44817,-1.10135 -0.0569,-0.41398 -0.038,-0.86402 0.0569,-1.34634 0.0948,-0.48422 0.27535,-0.98553 0.51082,-1.50963 0.26586,-0.59246 0.53931,-1.07858 0.82225,-1.45646 0.28105,-0.38357 0.58298,-0.67032 0.9001,-0.86779 0.31903,-0.20507 0.65705,-0.32281 1.01595,-0.35509 z m -3.6855,7.97312 c 0.3608,-0.004 0.74819,0.0569 1.15268,0.20127 l -0.7767,1.8837 c -0.42156,-0.13287 -0.80516,-0.0948 -1.15266,0.0569 -0.34371,0.1709 -0.66274,0.50321 -0.95898,1.01592 -0.1899,0.31901 -0.31142,0.59625 -0.37599,0.8431 -0.0569,0.23926 -0.0949,0.44815 -0.0759,0.62854 0.038,0.17091 0.0948,0.32852 0.18988,0.45385 0.0951,0.13289 0.20509,0.22596 0.34371,0.30381 0.21269,0.13289 0.41968,0.17091 0.61527,0.15192 0.19559,-0.038 0.38927,-0.0948 0.59059,-0.22598 0.19558,-0.13287 0.39687,-0.30191 0.60956,-0.51839 0.2089,-0.22217 0.43107,-0.46333 0.67224,-0.73107 0.21267,-0.23547 0.42915,-0.46904 0.64755,-0.69881 0.21456,-0.22976 0.42916,-0.43675 0.65324,-0.62855 0.22596,-0.18988 0.46332,-0.35507 0.7064,-0.4918 0.24117,-0.13288 0.49184,-0.22598 0.75769,-0.27154 0.26587,-0.057 0.5412,-0.057 0.83555,0 0.29623,0.0569 0.61146,0.1709 0.94567,0.37029 0.3912,0.22595 0.70643,0.49941 0.94569,0.82792 0.23547,0.32471 0.3798,0.70641 0.43296,1.13934 0.0569,0.42915 0,0.91526 -0.13288,1.45837 -0.15192,0.53548 -0.40638,1.11844 -0.77667,1.76217 -0.32853,0.56966 -0.66845,1.0482 -1.02355,1.42417 -0.3532,0.37789 -0.7216,0.66272 -1.10139,0.86021 -0.38169,0.19559 -0.77289,0.30382 -1.17927,0.33231 -0.40827,0.038 -0.83174,-0.038 -1.26281,-0.17089 l 0.71972,-1.91051 c 0.22028,0.0569 0.44055,0.0951 0.65514,0.0951 0.21079,-9.8e-4 0.42157,-0.0569 0.63425,-0.15191 0.20889,-0.0948 0.42156,-0.25256 0.62856,-0.45955 0.20508,-0.21267 0.40637,-0.4994 0.60955,-0.84881 0.35322,-0.60955 0.52983,-1.12605 0.53173,-1.5533 9.8e-4,-0.43296 -0.1918,-0.76336 -0.58868,-0.99122 -0.23547,-0.13289 -0.46714,-0.18989 -0.69313,-0.15192 -0.22597,0.038 -0.44815,0.15192 -0.67413,0.30383 -0.22218,0.15191 -0.44626,0.35889 -0.67224,0.60195 -0.22976,0.24116 -0.46335,0.50132 -0.69882,0.77095 -0.19937,0.21079 -0.39308,0.41967 -0.59437,0.62853 -0.20128,0.20889 -0.41397,0.40258 -0.62855,0.57727 -0.2108,0.17091 -0.43107,0.31903 -0.66084,0.44056 -0.22977,0.13288 -0.47095,0.20887 -0.72541,0.25255 -0.25635,0.038 -0.52412,0.038 -0.80326,-0.038 -0.27535,-0.0569 -0.56778,-0.1709 -0.88111,-0.35508 -0.42727,-0.24878 -0.74631,-0.5469 -0.95328,-0.8944 -0.2051,-0.34749 -0.31904,-0.72727 -0.33803,-1.13934 -0.038,-0.41776 0.057,-0.86399 0.1994,-1.33492 0.15192,-0.47093 0.37409,-0.95326 0.66084,-1.45076 0.32472,-0.56208 0.64375,-1.01212 0.96468,-1.35963 0.31902,-0.3532 0.65134,-0.61145 0.98367,-0.77664 0.33991,-0.17089 0.6798,-0.25636 1.04251,-0.25255 z m -5.21418,6.50298 4.92934,3.60089 c 0.55069,0.40257 0.96467,0.84312 1.23812,1.31405 0.27155,0.47282 0.42156,0.96464 0.45385,1.47733 0.038,0.51081 -0.0569,1.033 -0.24497,1.56849 -0.19559,0.52791 -0.47665,1.0577 -0.86023,1.5799 -0.36651,0.5013 -0.76148,0.91908 -1.18496,1.24948 -0.42536,0.32851 -0.88111,0.55258 -1.35395,0.67222 -0.47284,0.11387 -0.97036,0.11387 -1.49068,0 -0.51652,-0.1329 -1.04634,-0.38358 -1.59324,-0.78425 l -5.01326,-3.6723 1.23052,-1.67673 4.88395,3.57544 c 0.33611,0.24496 0.65704,0.42157 0.96468,0.51843 0.30383,0.0948 0.59437,0.11387 0.86782,0.0758 0.26775,-0.038 0.52221,-0.13289 0.75768,-0.30381 0.23169,-0.17091 0.45196,-0.39118 0.64755,-0.66081 0.19939,-0.27157 0.34372,-0.54499 0.43296,-0.82795 0.0951,-0.28861 0.11389,-0.57916 0.0761,-0.86019 -0.038,-0.28673 -0.15192,-0.56777 -0.33802,-0.84312 -0.1899,-0.27533 -0.45196,-0.53739 -0.79757,-0.78993 l -4.82565,-3.53007 z m -5.49902,8.64667 c 0.3969,-0.0569 0.78237,0 1.15267,0.13288 0.37031,0.13289 0.72731,0.35698 1.06152,0.66652 0.27155,0.25255 0.48424,0.52219 0.63427,0.81652 0.15191,0.28482 0.24875,0.58675 0.29243,0.89438 0.0569,0.30382 0.038,0.61144 -0.038,0.92098 -0.0569,0.30381 -0.17091,0.60004 -0.33231,0.88108 l 4.8902,0.86021 -1.59323,1.7166 -4.33324,-0.8678 -1.65779,1.79447 2.77192,2.55839 -1.41284,1.52862 -7.29942,-6.74245 3.36801,-3.64645 c 0.42157,-0.45575 0.83933,-0.80514 1.25711,-1.0501 0.41587,-0.24875 0.82415,-0.40067 1.22483,-0.45383 z m -0.26584,2.00105 c -0.38549,0.076 -0.78049,0.32472 -1.17927,0.75767 l -1.8078,1.95624 2.15701,1.99462 1.8458,-2.00126 c 0.20889,-0.22977 0.3684,-0.45005 0.46526,-0.66081 0.0948,-0.21458 0.1519,-0.41588 0.1519,-0.60956 -0.002,-0.19938 -0.038,-0.38738 -0.13288,-0.56397 -0.0948,-0.1709 -0.2108,-0.3418 -0.37601,-0.49181 -0.35701,-0.32851 -0.7311,-0.45764 -1.12039,-0.38169 z m -9.3338,7.10534 c 0.376,-0.038 0.72732,0.038 1.06153,0.15189 0.33611,0.13288 0.67221,0.33232 0.99696,0.60765 l -1.41855,1.46407 c -0.3456,-0.27156 -0.71019,-0.39119 -1.09379,-0.36271 -0.3817,0.038 -0.80516,0.21649 -1.27041,0.58298 -0.28865,0.22596 -0.50892,0.44433 -0.66084,0.64753 -0.15191,0.19557 -0.25256,0.38166 -0.29813,0.55638 -0.038,0.17089 -0.038,0.33419 0,0.48611 0.038,0.15192 0.11388,0.28863 0.20507,0.41586 0.15193,0.19179 0.32283,0.30762 0.51084,0.3627 0.18989,0.057 0.40067,0.057 0.63425,0 0.22979,-0.0569 0.48233,-0.13289 0.75769,-0.25826 0.27535,-0.13288 0.57728,-0.26775 0.9001,-0.42725 0.28485,-0.13288 0.56779,-0.27914 0.85454,-0.40827 0.28485,-0.13288 0.56969,-0.24876 0.84884,-0.34369 0.27723,-0.0948 0.5545,-0.15192 0.82795,-0.19559 0.27535,-0.038 0.54498,-0.038 0.80896,0.038 0.26585,0.0569 0.5241,0.1519 0.77667,0.31141 0.25636,0.15193 0.50702,0.38928 0.74439,0.6931 0.27915,0.35509 0.46904,0.72728 0.56968,1.12035 0.0948,0.38928 0.0948,0.79565 -0.038,1.2191 -0.0948,0.41777 -0.32471,0.85261 -0.66083,1.30264 -0.33423,0.44246 -0.78997,0.8944 -1.37295,1.35393 -0.51652,0.40826 -1.00834,0.71968 -1.4774,0.93805 -0.46714,0.21838 -0.921,0.35129 -1.34635,0.39499 -0.42347,0.038 -0.82417,-0.004 -1.21155,-0.13289 -0.38549,-0.13289 -0.75579,-0.3418 -1.10711,-0.62854 l 1.37295,-1.50203 c 0.18991,0.13287 0.3703,0.24495 0.56971,0.32471 0.19939,0.0758 0.41586,0.11389 0.64754,0.0948 0.23167,0 0.48424,-0.0948 0.75199,-0.20127 0.26777,-0.1329 0.55639,-0.30383 0.87352,-0.55639 0.55451,-0.43674 0.9153,-0.8545 1.07481,-1.25136 0.17091,-0.40258 0.095,-0.78236 -0.1899,-1.13935 -0.17089,-0.21648 -0.37029,-0.34369 -0.59626,-0.38929 -0.22598,-0.038 -0.46524,-0.038 -0.7311,0.038 -0.26586,0.0569 -0.55451,0.17091 -0.85454,0.31143 -0.30194,0.1519 -0.61146,0.29812 -0.9324,0.45953 -0.26204,0.13288 -0.5241,0.24117 -0.78996,0.36269 -0.26585,0.13288 -0.53361,0.22216 -0.79757,0.30573 -0.26205,0.076 -0.51841,0.13287 -0.77667,0.17089 -0.25826,0.038 -0.51272,0.038 -0.76529,-0.038 -0.25257,-0.057 -0.49183,-0.17088 -0.73299,-0.319 -0.23548,-0.15191 -0.46905,-0.37599 -0.69313,-0.66082 -0.30382,-0.38738 -0.48803,-0.78044 -0.55069,-1.17922 -0.0569,-0.40067 -0.038,-0.79564 0.11388,-1.18492 0.13289,-0.39687 0.3627,-0.78425 0.67983,-1.16591 0.31523,-0.38169 0.69502,-0.74629 1.14696,-1.10138 0.51084,-0.40257 0.97987,-0.71019 1.40525,-0.91336 0.42536,-0.21079 0.82604,-0.32853 1.19825,-0.35511 z m -6.1403,4.22276 3.21912,5.19445 c 0.35892,0.57918 0.57349,1.13745 0.64755,1.67674 0.076,0.5412 0.038,1.0596 -0.13288,1.5476 -0.17091,0.48423 -0.43676,0.93617 -0.81656,1.35962 -0.37789,0.41776 -0.84694,0.79185 -1.39952,1.13365 -0.52792,0.32851 -1.05014,0.56397 -1.56666,0.71209 -0.51842,0.15191 -1.01975,0.18989 -1.50208,0.13288 -0.48235,-0.076 -0.93428,-0.26584 -1.37295,-0.56966 -0.43295,-0.30383 -0.82795,-0.74628 -1.18496,-1.32165 l -3.27761,-5.27877 1.76794,-1.10135 3.19331,5.14926 c 0.21837,0.35509 0.45003,0.63612 0.6988,0.84311 0.24497,0.20127 0.50323,0.33421 0.77097,0.40067 0.26587,0.0569 0.54122,0.0569 0.82227,0 0.27915,-0.0569 0.5583,-0.18989 0.84314,-0.36269 0.28863,-0.1899 0.52791,-0.37978 0.71971,-0.60955 0.19179,-0.23547 0.32282,-0.49183 0.38929,-0.77096 0.076,-0.28104 0.0569,-0.58296 0,-0.90577 -0.057,-0.32283 -0.2146,-0.66652 -0.44057,-1.03111 l -3.14829,-5.0845 z m -9.37215,5.79052 c 0.48424,-0.0569 0.9267,-0.038 1.32169,0.0948 0.39497,0.13287 0.7387,0.3228 1.03683,0.60954 0.30193,0.28673 0.545,0.63425 0.74439,1.05579 0.1899,0.38548 0.29813,0.79374 0.33802,1.2172 0.038,0.41776 0,0.82791 -0.15191,1.23048 -0.13289,0.40447 -0.37791,0.78615 -0.71212,1.14695 -0.33612,0.35509 -0.78238,0.66462 -1.34826,0.93237 l -2.23432,1.05578 1.49637,3.16738 -1.88566,0.88678 -4.24248,-8.98352 4.03512,-1.91069 c 0.57349,-0.27154 1.10708,-0.43294 1.59323,-0.49182 z m -0.34372,1.80017 c -0.23737,0.038 -0.49182,0.13289 -0.77096,0.25255 l -1.94302,0.92097 1.37294,2.91444 2.00132,-0.94566 c 0.28296,-0.13288 0.50132,-0.27913 0.66654,-0.44624 0.17091,-0.1709 0.28864,-0.34939 0.3551,-0.54309 0.0759,-0.19557 0.0951,-0.40257 0.0759,-0.61525 -0.038,-0.21457 -0.0951,-0.43293 -0.19558,-0.6532 -0.2203,-0.46334 -0.52031,-0.75009 -0.91342,-0.85451 -0.19558,-0.057 -0.41775,-0.057 -0.65514,-0.038 z m -72.582555,0.23166 1.975492,0.65513 -1.883772,5.74494 c -0.13293,0.39687 -0.195591,0.75957 -0.195591,1.08238 0,0.31901 0.05697,0.60006 0.189894,0.84881 0.13293,0.24114 0.301937,0.45383 0.531711,0.62854 0.231673,0.17089 0.505125,0.30382 0.822251,0.40824 0.322825,0.0951 0.628556,0.17091 0.926693,0.17091 0.301936,0 0.586783,-0.0759 0.841243,-0.20128 0.258258,-0.13288 0.488032,-0.3247 0.69312,-0.58296 0.205089,-0.25825 0.372198,-0.59055 0.505127,-0.99693 l 1.864781,-5.68664 1.975681,0.64752 -1.904658,5.80969 c -0.210787,0.64752 -0.503226,1.16973 -0.867827,1.57421 -0.366502,0.40447 -0.784272,0.7045 -1.26281,0.89437 -0.476641,0.18989 -0.998857,0.27155 -1.568547,0.25256 -0.562092,-0.038 -1.152669,-0.13288 -1.767934,-0.338 -0.590581,-0.19369 -1.108995,-0.44435 -1.555252,-0.74438 -0.444355,-0.30383 -0.793768,-0.65702 -1.055825,-1.06908 -0.256358,-0.41395 -0.404477,-0.88678 -0.453852,-1.41847 -0.03798,-0.5298 0.03798,-1.11846 0.252564,-1.7622 z m 66.616985,0.71209 3.1348,9.43034 -1.75464,0.58296 -1.89707,-5.71912 c -0.076,-0.22976 -0.15191,-0.45762 -0.22598,-0.69879 -0.0759,-0.24115 -0.13289,-0.46904 -0.19559,-0.67221 -0.0569,-0.24116 -0.13288,-0.47284 -0.19559,-0.6988 0.038,0.38358 0.038,0.75007 0.0569,1.09377 0,0.15192 0.038,0.29244 0.038,0.44814 0,0.15191 0,0.31142 0.038,0.45954 0,0.1519 0,0.27914 0,0.40826 0.002,0.13289 0,0.23546 0,0.33231 l 0.057,5.82907 -1.41282,0.46712 -3.44567,-4.69598 c -0.0569,-0.0761 -0.13289,-0.1709 -0.19559,-0.27155 -0.0761,-0.0951 -0.15193,-0.21647 -0.22599,-0.33801 -0.0759,-0.13288 -0.17091,-0.25257 -0.25256,-0.38167 -0.0948,-0.13289 -0.1709,-0.24876 -0.25826,-0.36839 -0.19559,-0.28863 -0.39878,-0.59246 -0.61526,-0.91337 0.0948,0.25635 0.1956,0.50509 0.29243,0.75196 0.076,0.21268 0.17092,0.43295 0.25258,0.66652 0.0948,0.23546 0.1709,0.43484 0.21837,0.60954 l 1.89897,5.71913 -1.75464,0.58296 -3.13481,-9.43015 2.64905,-0.88109 3.43939,4.71516 c 0.0948,0.13289 0.1899,0.27535 0.30385,0.45955 0.13289,0.18987 0.23737,0.35887 0.3494,0.53167 0.13289,0.19939 0.26206,0.41209 0.4007,0.62856 0,-0.25256 -0.038,-0.49943 -0.057,-0.7311 0,-0.0948 0,-0.20886 0,-0.319 0,-0.0951 0,-0.20887 0,-0.31142 0,-0.0949 0,-0.20508 0,-0.29812 -9.8e-4,-0.0951 0,-0.17092 0,-0.24497 l -0.0948,-5.86153 z m -57.347953,2.254 7.124724,1.71661 -0.375995,1.56089 -5.103847,-1.22479 -0.719707,2.99211 4.94813,1.18493 -0.374094,1.56089 -4.94851,-1.18493 -0.848839,3.54299 -2.027142,-0.48612 z m 44.076473,1.65775 5.4992,9.03536 -2.02106,0.40828 -1.36726,-2.31877 -3.71151,0.74437 -0.36842,2.66189 -2.04024,0.40826 1.59893,-10.45366 z m -32.974939,0.64752 c 0.370299,0 0.757686,0.038 1.171661,0.0949 0.641849,0.095 1.192549,0.24495 1.652099,0.45383 0.463344,0.20889 0.854532,0.46524 1.165961,0.76527 0.319028,0.29622 0.562095,0.62852 0.738697,0.99691 0.189899,0.36459 0.311431,0.75387 0.381694,1.17164 l -1.891369,0.22596 c -0.03798,-0.21838 -0.09495,-0.43675 -0.205089,-0.64753 -0.09494,-0.21458 -0.252563,-0.41586 -0.440559,-0.59625 -0.189894,-0.17091 -0.408279,-0.32852 -0.672233,-0.45953 -0.265855,-0.1329 -0.573486,-0.23168 -0.926693,-0.28675 -0.497529,-0.076 -0.938089,-0.057 -1.32168,0.0569 -0.381692,0.0948 -0.706415,0.28865 -0.983663,0.55068 -0.271552,0.26207 -0.499428,0.59436 -0.674134,0.99694 -0.170904,0.39686 -0.29244,0.8583 -0.368397,1.37291 -0.07596,0.5108 -0.09495,0.98742 -0.05697,1.43177 0.05697,0.44054 0.170904,0.83171 0.349409,1.17162 0.189899,0.3418 0.446256,0.62094 0.78427,0.84881 0.341815,0.22597 0.770979,0.3817 1.281804,0.45953 0.385489,0.0569 0.727303,0.0569 1.023538,0 0.301935,-0.0758 0.565891,-0.17089 0.797566,-0.31901 0.235474,-0.15191 0.432963,-0.32281 0.601973,-0.52599 0.170904,-0.20127 0.324722,-0.41396 0.446253,-0.62853 l 1.690081,0.95324 c -0.195594,0.33232 -0.434861,0.64753 -0.719708,0.95324 -0.281049,0.30574 -0.622863,0.56209 -1.01025,0.77096 -0.389288,0.20889 -0.831745,0.35131 -1.340669,0.44056 -0.503224,0.0951 -1.084305,0.0951 -1.735651,0 -0.850735,-0.13289 -1.564746,-0.36649 -2.150387,-0.7121 -0.584881,-0.3494 -1.052027,-0.77664 -1.391941,-1.28934 -0.336115,-0.51651 -0.554496,-1.10138 -0.660839,-1.7546 -0.09494,-0.65132 -0.09494,-1.35203 0,-2.09221 0.11394,-0.76716 0.322824,-1.44507 0.609567,-2.03334 0.29244,-0.58866 0.668439,-1.0653 1.133681,-1.43748 0.465247,-0.37788 1.019746,-0.63613 1.665393,-0.77666 0.324723,-0.0759 0.672233,-0.11388 1.04253,-0.11388 z m 22.818889,0.74437 c 0.64756,-0.0569 1.21535,-0.038 1.71097,0.057 0.49942,0.095 0.9343,0.24874 1.30839,0.46521 0.37789,0.21078 0.69312,0.48043 0.95328,0.79756 0.26586,0.31141 0.48043,0.66461 0.64754,1.05579 l -1.78122,0.66081 c -0.0952,-0.20508 -0.2013,-0.40257 -0.35511,-0.58297 -0.15191,-0.18988 -0.33992,-0.34179 -0.56399,-0.47283 -0.21838,-0.13287 -0.47474,-0.22596 -0.76529,-0.29241 -0.28863,-0.0761 -0.61528,-0.0951 -0.97226,-0.0569 -0.50132,0.038 -0.92289,0.1519 -1.2704,0.35699 -0.34562,0.1937 -0.62097,0.45004 -0.82796,0.77097 -0.20129,0.31902 -0.34561,0.69498 -0.42157,1.12604 -0.076,0.42534 -0.0949,0.89818 -0.038,1.41848 0.057,0.51462 0.1519,0.98364 0.29244,1.4052 0.15193,0.41585 0.3532,0.76716 0.61527,1.05578 0.26206,0.28864 0.57729,0.507 0.95896,0.64753 0.38549,0.15191 0.83936,0.18989 1.35397,0.15191 0.3893,-0.038 0.71971,-0.13288 0.99125,-0.25255 0.27536,-0.13289 0.50893,-0.30191 0.69883,-0.49942 0.19558,-0.19559 0.35131,-0.41016 0.46715,-0.64753 0.13288,-0.23735 0.21648,-0.47471 0.28483,-0.71208 l 1.8648,0.52409 c -0.11389,0.36838 -0.27537,0.7311 -0.47854,1.09376 -0.20509,0.36271 -0.46905,0.69122 -0.79759,0.98554 -0.32851,0.29244 -0.72538,0.5431 -1.19822,0.75196 -0.46906,0.2013 -1.03493,0.33233 -1.69008,0.3893 -0.85644,0.0758 -1.61033,0 -2.26034,-0.1899 -0.65135,-0.20128 -1.20015,-0.5146 -1.6521,-0.93237 -0.44815,-0.42346 -0.79946,-0.93805 -1.05582,-1.54759 -0.25257,-0.60957 -0.41397,-1.28936 -0.47853,-2.03375 -0.057,-0.77284 -0.038,-1.47734 0.11387,-2.11801 0.15191,-0.63995 0.40638,-1.19254 0.77098,-1.66346 0.3627,-0.47662 0.83934,-0.8583 1.43182,-1.14694 0.59818,-0.29623 1.31599,-0.47663 2.15058,-0.55068 z m 9.25574,0.3494 c -9.9e-4,0 0,0.076 0,0.17091 0,0.0948 -0.038,0.20886 -0.038,0.3494 0,0.15191 -0.038,0.30191 -0.0569,0.47851 -0.038,0.17091 -0.038,0.3456 -0.057,0.5184 l -0.39496,2.99211 2.79792,-0.56399 -1.52296,-2.61022 -0.26586,-0.44815 c -0.0949,-0.15191 -0.15191,-0.29621 -0.22597,-0.42155 -0.057,-0.13289 -0.1139,-0.24115 -0.17092,-0.32471 -0.038,-0.0948 -0.0569,-0.13289 -0.0759,-0.13289 z"
         style="opacity:1;fill:#000080;fill-opacity:1;stroke:none;stroke-width:3.66497231" />
      <path
         d="m 99.100464,198.02459 0.05703,-1.72042 3.665576,0.13289 -0.057,1.72042 z"
         style="font-style:normal;font-variant:normal;font-weight:normal;font-stretch:normal;font-size:51.15277863px;line-height:1.25;font-family:'UKIJ Bom';-inkscape-font-specification:'UKIJ Bom';letter-spacing:0px;word-spacing:0px;fill:#000080;fill-opacity:1;stroke:none;stroke-width:0.32793868"
         id="path5802-9-0-7-0-5-8-9-0"
         inkscape:connector-curvature="0" />
      <path
         transform="matrix(0.98505815,0,0,0.98502727,0.04544954,3.0869718)"
         inkscape:transform-center-y="-0.55944417"
         inkscape:transform-center-x="-0.28145742"
         d="m 74.949461,61.1543 -3.649673,-5.99436 -5.67328,4.188 4.573164,-5.323404 -5.736165,-4.101448 6.476044,2.704316 2.128136,-6.722834 -0.570749,6.994763 7.051425,-0.05349 -6.828786,1.618686 z"
         inkscape:randomized="0"
         inkscape:rounded="0"
         inkscape:flatsided="false"
         sodipodi:arg2="1.7436599"
         sodipodi:arg1="1.1338605"
         sodipodi:r2="1.3448355"
         sodipodi:r1="8.0780659"
         sodipodi:cy="53.835148"
         sodipodi:cx="71.531105"
         sodipodi:sides="5"
         id="path1286-8-6-7-7-2-3-6"
         style="opacity:0.97000002;fill:#ffffff;fill-opacity:1;stroke:none;stroke-width:0.44640285;stroke-opacity:1"
         sodipodi:type="star" />
      <path
         transform="matrix(0.24717673,0.13049613,-0.13050022,0.24716898,935.45318,-245.33641)"
         inkscape:transform-center-y="0.30989666"
         inkscape:transform-center-x="0.20791683"
         d="m -1910.3207,2529.0979 -7.7123,-12.6671 -11.9885,8.85 9.6638,-11.2492 -12.1215,-8.6671 13.685,5.7147 4.4971,-14.2064 -1.2061,14.781 14.9008,-0.113 -14.4304,3.4205 z"
         inkscape:randomized="0"
         inkscape:rounded="0"
         inkscape:flatsided="false"
         sodipodi:arg2="1.7436599"
         sodipodi:arg1="1.1338605"
         sodipodi:r2="2.8418512"
         sodipodi:r1="17.070242"
         sodipodi:cy="2513.6313"
         sodipodi:cx="-1917.5442"
         sodipodi:sides="5"
         id="path1286-0-60-1-8-4-9-9-2"
         style="opacity:0.97000002;fill:#ffffff;fill-opacity:1;stroke:none;stroke-width:0.94332051;stroke-opacity:1"
         sodipodi:type="star" />
      <path
         transform="matrix(0.34474245,0.2787768,-0.27878554,0.34473164,1419.3541,-185.27577)"
         inkscape:transform-center-y="0.41884343"
         inkscape:transform-center-x="0.41862047"
         d="m -1910.3207,2529.0979 -7.7513,-13.7317 -14.9387,5.4887 13.7317,-7.7514 -5.4887,-14.9387 7.7514,13.7317 14.9386,-5.4887 -13.7317,7.7514 z"
         inkscape:randomized="0"
         inkscape:rounded="0"
         inkscape:flatsided="false"
         sodipodi:arg2="1.8661651"
         sodipodi:arg1="1.1338605"
         sodipodi:r2="1.8133633"
         sodipodi:r1="17.070242"
         sodipodi:cy="2513.6313"
         sodipodi:cx="-1917.5442"
         sodipodi:sides="4"
         id="path1286-0-6-4-5-6-1-9-2-6"
         style="opacity:0.97000002;fill:#ffffff;fill-opacity:1;stroke:none;stroke-width:0.94332051;stroke-opacity:1"
         sodipodi:type="star" />
      <path
         transform="matrix(0.24445911,0.12906131,-0.12906535,0.24445145,917.46942,-211.54011)"
         inkscape:transform-center-y="0.30670851"
         inkscape:transform-center-x="0.20555659"
         d="m -1910.3207,2529.0979 -7.2572,-12.6249 -7.5547,12.4492 5.3457,-13.5455 -14.4434,1.8554 13.9232,-4.2659 -10.4559,-10.1355 12.0162,8.2258 1.4051,-14.4942 1.0608,14.5234 12.2081,-7.9384 -10.6935,9.8846 13.8181,4.5951 -14.3953,-2.1976 z"
         inkscape:randomized="0"
         inkscape:rounded="0"
         inkscape:flatsided="false"
         sodipodi:arg2="1.5826595"
         sodipodi:arg1="1.1338605"
         sodipodi:r2="2.8418512"
         sodipodi:r1="17.070242"
         sodipodi:cy="2513.6313"
         sodipodi:cx="-1917.5442"
         sodipodi:sides="7"
         id="path1286-0-3-6-5-8-8-6-8-1"
         style="opacity:0.97000002;fill:#ffffff;fill-opacity:1;stroke:none;stroke-width:0.94332051;stroke-opacity:1"
         sodipodi:type="star" />
      <path
         transform="matrix(0.25194691,0.13301464,-0.13301881,0.25193902,983.81372,-273.91854)"
         inkscape:transform-center-y="0.31553119"
         inkscape:transform-center-x="0.21189133"
         d="m -1910.3207,2529.0979 -7.0978,-12.6275 -5.9544,13.2052 3.91,-13.9479 -13.5478,5.1272 12.6274,-7.0979 -13.2052,-5.9543 13.9479,3.91 -5.1271,-13.5479 7.0978,12.6275 5.9544,-13.2053 -3.91,13.948 13.5478,-5.1272 -12.6274,7.0979 13.2052,5.9543 -13.9479,-3.91 z"
         inkscape:randomized="0"
         inkscape:rounded="0"
         inkscape:flatsided="false"
         sodipodi:arg2="1.5265596"
         sodipodi:arg1="1.1338605"
         sodipodi:r2="2.8418512"
         sodipodi:r1="17.070242"
         sodipodi:cy="2513.6313"
         sodipodi:cx="-1917.5442"
         sodipodi:sides="8"
         id="path1286-0-6-2-7-4-8-5-0-3-8"
         style="opacity:0.97000002;fill:#ffffff;fill-opacity:1;stroke:none;stroke-width:0.94332051;stroke-opacity:1"
         sodipodi:type="star" />
      <path
         transform="matrix(0.03986931,0.16334925,-0.16335437,0.03986806,642.10581,357.68684)"
         inkscape:transform-center-y="-0.17899096"
         inkscape:transform-center-x="-0.33204192"
         d="m -1910.3207,2529.0979 -7.7641,-12.6766 -11.9367,8.8595 9.6569,-11.3014 -12.1146,-8.6149 13.7324,5.692 4.4497,-14.1837 -1.1699,14.8192 14.8646,-0.1512 -14.4554,3.4668 z"
         inkscape:randomized="0"
         inkscape:rounded="0"
         inkscape:flatsided="false"
         sodipodi:arg2="1.762179"
         sodipodi:arg1="1.1338605"
         sodipodi:r2="2.8418512"
         sodipodi:r1="17.070242"
         sodipodi:cy="2513.6313"
         sodipodi:cx="-1917.5442"
         sodipodi:sides="5"
         id="path1286-0-6-2-0-6-7-4-9-2-0-7"
         style="opacity:0.97000002;fill:#ffffff;fill-opacity:1;stroke:none;stroke-width:0.94332051;stroke-opacity:1"
         sodipodi:type="star" />
    </g>
  </g>
</svg>
